<?xml version="1.0" encoding="us-ascii" standalone="no"?><svg xmlns="http://www.w3.org/2000/svg" xmlns:xlink="http://www.w3.org/1999/xlink" contentStyleType="text/css" height="460px" preserveAspectRatio="none" style="width:517px;height:460px;background:#FFFFFF;" version="1.1" viewBox="0 0 517 460" width="517px" zoomAndPan="magnify"><defs/><g><!--cluster strategy_pattern--><g id="cluster_strategy_pattern"><path d="M8.5,6 L148.5,6 A3.75,3.75 0 0 1 151,8.5 L158,28.2969 L507.5,28.2969 A2.5,2.5 0 0 1 510,30.7969 L510,450.5 A2.5,2.5 0 0 1 507.5,453 L8.5,453 A2.5,2.5 0 0 1 6,450.5 L6,8.5 A2.5,2.5 0 0 1 8.5,6 " fill="none" style="stroke:#000000;stroke-width:1.5;"/><line style="stroke:#000000;stroke-width:1.5;" x1="6" x2="158" y1="28.2969" y2="28.2969"/><text fill="#000000" font-family="sans-serif" font-size="14" font-weight="bold" lengthAdjust="spacing" textLength="139" x="10" y="20.9951">strategy_pattern</text></g><!--cluster startegy_game.dart--><g id="cluster_startegy_game.dart"><path d="M32.5,49 L194.5,49 A3.75,3.75 0 0 1 197,51.5 L204,71.2969 L483.5,71.2969 A2.5,2.5 0 0 1 486,73.7969 L486,426.5 A2.5,2.5 0 0 1 483.5,429 L32.5,429 A2.5,2.5 0 0 1 30,426.5 L30,51.5 A2.5,2.5 0 0 1 32.5,49 " fill="none" style="stroke:#000000;stroke-width:1.5;"/><line style="stroke:#000000;stroke-width:1.5;" x1="30" x2="204" y1="71.2969" y2="71.2969"/><text fill="#000000" font-family="sans-serif" font-size="14" font-weight="bold" lengthAdjust="spacing" textLength="161" x="34" y="63.9951">startegy_game.dart</text></g><!--class Weapon--><g id="elem_Weapon"><rect codeLine="3" fill="#F1F1F1" height="64.2969" id="Weapon" rx="2.5" ry="2.5" style="stroke:#181818;stroke-width:0.5;" width="117" x="198.5" y="225"/><ellipse cx="225.2" cy="241" fill="#A9DCDF" rx="11" ry="11" style="stroke:#181818;stroke-width:1.0;"/><path d="M227.2781,242.8125 L227.6688,243.7969 L227.2781,243.7969 C226.825,243.7969 226.7156,243.8125 226.5594,243.9219 C226.3094,244.0781 226.1531,244.3594 226.1531,244.6563 C226.1531,244.9219 226.2938,245.1719 226.5125,245.3281 C226.6531,245.4531 226.8563,245.5 227.2781,245.5 L229.6375,245.5 C229.9969,245.5 230.2156,245.4688 230.3563,245.375 C230.6063,245.2344 230.7625,244.9375 230.7625,244.6563 C230.7625,244.375 230.6219,244.125 230.4031,243.9688 C230.2313,243.8281 230.075,243.7969 229.6063,243.7969 L226.2156,235.5938 L222.5438,235.5938 C222.0906,235.5938 221.9656,235.6094 221.8094,235.7031 C221.5594,235.875 221.4031,236.1563 221.4031,236.4375 C221.4031,236.7188 221.5438,236.9688 221.7625,237.1406 C221.9344,237.25 222.1063,237.2813 222.5438,237.2813 L223.6219,237.2813 L220.9813,243.7969 C220.5594,243.7969 220.4031,243.8125 220.2469,243.9219 C219.9969,244.0781 219.8406,244.3594 219.8406,244.6563 C219.8406,245.2188 220.2156,245.5 220.9656,245.5 L223.2313,245.5 C223.5906,245.5 223.8094,245.4688 223.9344,245.375 C224.2,245.2344 224.3406,244.9375 224.3406,244.6563 C224.3406,244.375 224.2156,244.125 223.9969,243.9531 C223.825,243.8281 223.6844,243.7969 223.2313,243.7969 L222.8406,243.7969 L223.2313,242.8125 L227.2781,242.8125 Z M226.575,241.1094 L223.9031,241.1094 L225.2469,237.8438 L226.575,241.1094 Z " fill="#000000"/><text fill="#000000" font-family="sans-serif" font-size="14" font-style="italic" lengthAdjust="spacing" textLength="59" x="241.8" y="245.8467">Weapon</text><line style="stroke:#181818;stroke-width:0.5;" x1="199.5" x2="314.5" y1="257" y2="257"/><line style="stroke:#181818;stroke-width:0.5;" x1="199.5" x2="314.5" y1="265" y2="265"/><ellipse cx="209.5" cy="278.6484" fill="#84BE84" rx="3" ry="3" style="stroke:#038048;stroke-width:1.0;"/><text fill="#000000" font-family="sans-serif" font-size="14" lengthAdjust="spacing" textLength="91" x="218.5" y="281.9951">void attack()</text></g><!--class Pistol--><g id="elem_Pistol"><rect codeLine="7" fill="#F1F1F1" height="64.2969" id="Pistol" rx="2.5" ry="2.5" style="stroke:#181818;stroke-width:0.5;" width="117" x="46.5" y="349"/><ellipse cx="81.75" cy="365" fill="#ADD1B2" rx="11" ry="11" style="stroke:#181818;stroke-width:1.0;"/><path d="M84.0938,360.6719 C83.1563,360.2344 82.5625,360.0938 81.6875,360.0938 C79.0625,360.0938 77.0625,362.1719 77.0625,364.8906 L77.0625,366.0156 C77.0625,368.5938 79.1719,370.4844 82.0625,370.4844 C83.2813,370.4844 84.4375,370.1875 85.1875,369.6406 C85.7656,369.2344 86.0938,368.7813 86.0938,368.3906 C86.0938,367.9375 85.7031,367.5469 85.2344,367.5469 C85.0156,367.5469 84.8125,367.625 84.625,367.8125 C84.1719,368.2969 84.1719,368.2969 83.9844,368.3906 C83.5625,368.6563 82.875,368.7813 82.1094,368.7813 C80.0625,368.7813 78.7656,367.6875 78.7656,365.9844 L78.7656,364.8906 C78.7656,363.1094 80.0156,361.7969 81.75,361.7969 C82.3281,361.7969 82.9375,361.9531 83.4063,362.2031 C83.8906,362.4844 84.0625,362.7031 84.1563,363.1094 C84.2188,363.5156 84.25,363.6406 84.3906,363.7656 C84.5313,363.9063 84.7656,364.0156 84.9844,364.0156 C85.25,364.0156 85.5156,363.875 85.6875,363.6563 C85.7969,363.5 85.8281,363.3125 85.8281,362.8906 L85.8281,361.4688 C85.8281,361.0313 85.8125,360.9063 85.7188,360.75 C85.5625,360.4844 85.2813,360.3438 84.9844,360.3438 C84.6875,360.3438 84.4844,360.4375 84.2656,360.75 L84.0938,360.6719 Z " fill="#000000"/><text fill="#000000" font-family="sans-serif" font-size="14" lengthAdjust="spacing" textLength="40" x="100.25" y="369.8467">Pistol</text><line style="stroke:#181818;stroke-width:0.5;" x1="47.5" x2="162.5" y1="381" y2="381"/><line style="stroke:#181818;stroke-width:0.5;" x1="47.5" x2="162.5" y1="389" y2="389"/><ellipse cx="57.5" cy="402.6484" fill="#84BE84" rx="3" ry="3" style="stroke:#038048;stroke-width:1.0;"/><text fill="#000000" font-family="sans-serif" font-size="14" lengthAdjust="spacing" textLength="91" x="66.5" y="405.9951">void attack()</text></g><!--class Shotgun--><g id="elem_Shotgun"><rect codeLine="13" fill="#F1F1F1" height="64.2969" id="Shotgun" rx="2.5" ry="2.5" style="stroke:#181818;stroke-width:0.5;" width="117" x="198.5" y="349"/><ellipse cx="224.75" cy="365" fill="#ADD1B2" rx="11" ry="11" style="stroke:#181818;stroke-width:1.0;"/><path d="M227.0938,360.6719 C226.1563,360.2344 225.5625,360.0938 224.6875,360.0938 C222.0625,360.0938 220.0625,362.1719 220.0625,364.8906 L220.0625,366.0156 C220.0625,368.5938 222.1719,370.4844 225.0625,370.4844 C226.2813,370.4844 227.4375,370.1875 228.1875,369.6406 C228.7656,369.2344 229.0938,368.7813 229.0938,368.3906 C229.0938,367.9375 228.7031,367.5469 228.2344,367.5469 C228.0156,367.5469 227.8125,367.625 227.625,367.8125 C227.1719,368.2969 227.1719,368.2969 226.9844,368.3906 C226.5625,368.6563 225.875,368.7813 225.1094,368.7813 C223.0625,368.7813 221.7656,367.6875 221.7656,365.9844 L221.7656,364.8906 C221.7656,363.1094 223.0156,361.7969 224.75,361.7969 C225.3281,361.7969 225.9375,361.9531 226.4063,362.2031 C226.8906,362.4844 227.0625,362.7031 227.1563,363.1094 C227.2188,363.5156 227.25,363.6406 227.3906,363.7656 C227.5313,363.9063 227.7656,364.0156 227.9844,364.0156 C228.25,364.0156 228.5156,363.875 228.6875,363.6563 C228.7969,363.5 228.8281,363.3125 228.8281,362.8906 L228.8281,361.4688 C228.8281,361.0313 228.8125,360.9063 228.7188,360.75 C228.5625,360.4844 228.2813,360.3438 227.9844,360.3438 C227.6875,360.3438 227.4844,360.4375 227.2656,360.75 L227.0938,360.6719 Z " fill="#000000"/><text fill="#000000" font-family="sans-serif" font-size="14" lengthAdjust="spacing" textLength="60" x="241.25" y="369.8467">Shotgun</text><line style="stroke:#181818;stroke-width:0.5;" x1="199.5" x2="314.5" y1="381" y2="381"/><line style="stroke:#181818;stroke-width:0.5;" x1="199.5" x2="314.5" y1="389" y2="389"/><ellipse cx="209.5" cy="402.6484" fill="#84BE84" rx="3" ry="3" style="stroke:#038048;stroke-width:1.0;"/><text fill="#000000" font-family="sans-serif" font-size="14" lengthAdjust="spacing" textLength="91" x="218.5" y="405.9951">void attack()</text></g><!--class MachineGun--><g id="elem_MachineGun"><rect codeLine="19" fill="#F1F1F1" height="64.2969" id="MachineGun" rx="2.5" ry="2.5" style="stroke:#181818;stroke-width:0.5;" width="119" x="350.5" y="349"/><ellipse cx="365.5" cy="365" fill="#ADD1B2" rx="11" ry="11" style="stroke:#181818;stroke-width:1.0;"/><path d="M367.8438,360.6719 C366.9063,360.2344 366.3125,360.0938 365.4375,360.0938 C362.8125,360.0938 360.8125,362.1719 360.8125,364.8906 L360.8125,366.0156 C360.8125,368.5938 362.9219,370.4844 365.8125,370.4844 C367.0313,370.4844 368.1875,370.1875 368.9375,369.6406 C369.5156,369.2344 369.8438,368.7813 369.8438,368.3906 C369.8438,367.9375 369.4531,367.5469 368.9844,367.5469 C368.7656,367.5469 368.5625,367.625 368.375,367.8125 C367.9219,368.2969 367.9219,368.2969 367.7344,368.3906 C367.3125,368.6563 366.625,368.7813 365.8594,368.7813 C363.8125,368.7813 362.5156,367.6875 362.5156,365.9844 L362.5156,364.8906 C362.5156,363.1094 363.7656,361.7969 365.5,361.7969 C366.0781,361.7969 366.6875,361.9531 367.1563,362.2031 C367.6406,362.4844 367.8125,362.7031 367.9063,363.1094 C367.9688,363.5156 368,363.6406 368.1406,363.7656 C368.2813,363.9063 368.5156,364.0156 368.7344,364.0156 C369,364.0156 369.2656,363.875 369.4375,363.6563 C369.5469,363.5 369.5781,363.3125 369.5781,362.8906 L369.5781,361.4688 C369.5781,361.0313 369.5625,360.9063 369.4688,360.75 C369.3125,360.4844 369.0313,360.3438 368.7344,360.3438 C368.4375,360.3438 368.2344,360.4375 368.0156,360.75 L367.8438,360.6719 Z " fill="#000000"/><text fill="#000000" font-family="sans-serif" font-size="14" lengthAdjust="spacing" textLength="87" x="379.5" y="369.8467">MachineGun</text><line style="stroke:#181818;stroke-width:0.5;" x1="351.5" x2="468.5" y1="381" y2="381"/><line style="stroke:#181818;stroke-width:0.5;" x1="351.5" x2="468.5" y1="389" y2="389"/><ellipse cx="361.5" cy="402.6484" fill="#84BE84" rx="3" ry="3" style="stroke:#038048;stroke-width:1.0;"/><text fill="#000000" font-family="sans-serif" font-size="14" lengthAdjust="spacing" textLength="91" x="370.5" y="405.9951">void attack()</text></g><!--class Player--><g id="elem_Player"><rect codeLine="25" fill="#F1F1F1" height="80.5938" id="Player" rx="2.5" ry="2.5" style="stroke:#181818;stroke-width:0.5;" width="152" x="181" y="84"/><ellipse cx="230.75" cy="100" fill="#ADD1B2" rx="11" ry="11" style="stroke:#181818;stroke-width:1.0;"/><path d="M233.0938,95.6719 C232.1563,95.2344 231.5625,95.0938 230.6875,95.0938 C228.0625,95.0938 226.0625,97.1719 226.0625,99.8906 L226.0625,101.0156 C226.0625,103.5938 228.1719,105.4844 231.0625,105.4844 C232.2813,105.4844 233.4375,105.1875 234.1875,104.6406 C234.7656,104.2344 235.0938,103.7813 235.0938,103.3906 C235.0938,102.9375 234.7031,102.5469 234.2344,102.5469 C234.0156,102.5469 233.8125,102.625 233.625,102.8125 C233.1719,103.2969 233.1719,103.2969 232.9844,103.3906 C232.5625,103.6563 231.875,103.7813 231.1094,103.7813 C229.0625,103.7813 227.7656,102.6875 227.7656,100.9844 L227.7656,99.8906 C227.7656,98.1094 229.0156,96.7969 230.75,96.7969 C231.3281,96.7969 231.9375,96.9531 232.4063,97.2031 C232.8906,97.4844 233.0625,97.7031 233.1563,98.1094 C233.2188,98.5156 233.25,98.6406 233.3906,98.7656 C233.5313,98.9063 233.7656,99.0156 233.9844,99.0156 C234.25,99.0156 234.5156,98.875 234.6875,98.6563 C234.7969,98.5 234.8281,98.3125 234.8281,97.8906 L234.8281,96.4688 C234.8281,96.0313 234.8125,95.9063 234.7188,95.75 C234.5625,95.4844 234.2813,95.3438 233.9844,95.3438 C233.6875,95.3438 233.4844,95.4375 233.2656,95.75 L233.0938,95.6719 Z " fill="#000000"/><text fill="#000000" font-family="sans-serif" font-size="14" lengthAdjust="spacing" textLength="44" x="251.25" y="104.8467">Player</text><line style="stroke:#181818;stroke-width:0.5;" x1="182" x2="332" y1="116" y2="116"/><ellipse cx="192" cy="129.6484" fill="none" rx="3" ry="3" style="stroke:#038048;stroke-width:1.0;"/><text fill="#000000" font-family="sans-serif" font-size="14" lengthAdjust="spacing" textLength="126" x="201" y="132.9951">Weapon? weapon</text><line style="stroke:#181818;stroke-width:0.5;" x1="182" x2="332" y1="140.2969" y2="140.2969"/><ellipse cx="192" cy="153.9453" fill="#84BE84" rx="3" ry="3" style="stroke:#038048;stroke-width:1.0;"/><text fill="#000000" font-family="sans-serif" font-size="14" lengthAdjust="spacing" textLength="91" x="201" y="157.292">void attack()</text></g><!--reverse link Weapon to Pistol--><g id="link_Weapon_Pistol"><path codeLine="11" d="M202.51,301.735 C183.048,317.356 161.535,334.623 143.679,348.955 " fill="none" id="Weapon-backto-Pistol" style="stroke:#181818;stroke-width:1.0;"/><polygon fill="none" points="198.272,296.161,218.251,289.101,207.035,307.079,198.272,296.161" style="stroke:#181818;stroke-width:1.0;"/></g><!--reverse link Weapon to Shotgun--><g id="link_Weapon_Shotgun"><path codeLine="17" d="M257,309.341 C257,322.806 257,336.916 257,348.955 " fill="none" id="Weapon-backto-Shotgun" style="stroke:#181818;stroke-width:1.0;"/><polygon fill="none" points="250,309.101,257,289.101,264,309.101,250,309.101" style="stroke:#181818;stroke-width:1.0;"/></g><!--reverse link Weapon to MachineGun--><g id="link_Weapon_MachineGun"><path codeLine="23" d="M311.848,301.735 C331.438,317.356 353.093,334.623 371.067,348.955 " fill="none" id="Weapon-backto-MachineGun" style="stroke:#181818;stroke-width:1.0;"/><polygon fill="none" points="307.277,307.043,296.004,289.101,316.006,296.097,307.277,307.043" style="stroke:#181818;stroke-width:1.0;"/></g><!--reverse link Player to Weapon--><g id="link_Player_Weapon"><path codeLine="30" d="M257,178.033 C257,193.936 257,210.887 257,224.908 " fill="none" id="Player-backto-Weapon" style="stroke:#181818;stroke-width:1.0;"/><polygon fill="none" points="257,165.008,253,171.008,257,177.008,261,171.008,257,165.008" style="stroke:#181818;stroke-width:1.0;"/></g><!--SRC=[nP8n2y9038Nt-nMXaoBr1no2evCWTEWeyHhQOhqxBb4fwd-trXPS10-7Jk65yDxt84m25a_47Wrbv36Wk01QAuK7be16m3J83CbB2PNjtgC81Qir2uP-KtOEow8JMkU4tja4RWfWSN5r0TqrckDihXvAHLdjQXRNVBEAv5dTqpGoE18tgvoKPpi1xvWS2Rn5KzMMDfCmVuJ7laM3BOK1-HszXci__oanshhVEmozdm00]--></g></svg>